<?xml version="1.0" encoding="utf-8"?>
<!-- Generator: Adobe Illustrator 16.0.0, SVG Export Plug-In . SVG Version: 6.00 Build 0)  -->
<!DOCTYPE svg PUBLIC "-//W3C//DTD SVG 1.1//EN" "http://www.w3.org/Graphics/SVG/1.1/DTD/svg11.dtd">
<svg version="1.1" id="Calque_1" xmlns="http://www.w3.org/2000/svg" xmlns:xlink="http://www.w3.org/1999/xlink" x="0px" y="0px"
	 width="128px" height="22px" viewBox="0 0 128 22" enable-background="new 0 0 128 22" xml:space="preserve">
<g>
	<g>
		<g>
			<path fill="#1EACA7" d="M41.713,11.237v6.76c0.019,0.435,0.133,0.755,0.34,0.963c0.208,0.207,0.53,0.342,0.964,0.4l-0.089,2.461
				c-1.7,0-3.014-0.366-3.943-1.097c-1.582,0.73-3.172,1.097-4.773,1.097c-2.944,0-4.417-1.571-4.417-4.713
				c0-1.503,0.4-2.59,1.201-3.263c0.8-0.671,2.031-1.076,3.691-1.215l3.824-0.326v-1.068c0-0.79-0.174-1.344-0.519-1.66
				c-0.346-0.316-0.854-0.475-1.527-0.475c-1.264,0-2.846,0.081-4.743,0.237l-0.949,0.06l-0.118-2.282
				c2.154-0.514,4.135-0.771,5.943-0.771c1.809,0,3.114,0.391,3.914,1.171C41.312,8.297,41.713,9.538,41.713,11.237z M35.072,14.914
				c-1.364,0.118-2.046,0.858-2.046,2.223s0.603,2.045,1.809,2.045c0.987,0,2.035-0.157,3.142-0.474l0.534-0.178v-3.941
				L35.072,14.914z"/>
		</g>
		<g>
			<path fill="#97BF0D" d="M88.524,18.827l0.831-0.09l0.058,2.401c-2.253,0.455-4.248,0.683-5.988,0.683
				c-2.193,0-3.771-0.604-4.728-1.808c-0.96-1.207-1.439-3.133-1.439-5.782c0-5.257,2.146-7.886,6.435-7.886
				c4.149,0,6.226,2.264,6.226,6.79l-0.207,2.312H80.52c0.02,1.227,0.286,2.125,0.801,2.698c0.513,0.573,1.473,0.859,2.876,0.859
				C85.599,19.004,87.043,18.945,88.524,18.827z M86.746,12.957c0-1.463-0.233-2.485-0.697-3.068
				c-0.465-0.583-1.251-0.875-2.356-0.875c-1.107,0-1.912,0.307-2.417,0.92c-0.504,0.612-0.766,1.62-0.786,3.024H86.746z"/>
		</g>
		<g>
			<polygon fill="#97BF0D" points="102.369,18.561 94.928,18.561 94.928,1.187 91.637,1.187 91.637,21.495 102.369,21.495 
				103.021,21.495 105.602,21.495 105.602,6.672 102.369,6.672 			"/>
			<rect x="102.369" y="0.742" fill="#97BF0D" width="3.232" height="3.41"/>
		</g>
		<g>
			<path fill="#97BF0D" d="M111.619,9.429v12.066h-3.202V9.429h-1.72V6.672h1.72v-0.95c0-2.114,0.307-3.567,0.919-4.358
				c0.612-0.79,1.7-1.186,3.262-1.186l3.201,0.296l-0.03,2.638c-0.968-0.04-1.773-0.059-2.414-0.059
				c-0.643,0-1.093,0.193-1.35,0.578c-0.258,0.386-0.386,1.093-0.386,2.12v0.919h3.913v2.757H111.619z"/>
		</g>
		<g>
			<path fill="#97BF0D" d="M126.591,18.827l0.83-0.09l0.06,2.401c-2.254,0.455-4.25,0.683-5.989,0.683
				c-2.194,0-3.771-0.604-4.729-1.808c-0.96-1.207-1.437-3.133-1.437-5.782c0-5.257,2.144-7.886,6.433-7.886
				c4.15,0,6.226,2.264,6.226,6.79l-0.209,2.312h-9.188c0.018,1.227,0.284,2.125,0.799,2.698c0.514,0.573,1.472,0.859,2.876,0.859
				C123.665,19.004,125.109,18.945,126.591,18.827z M124.812,12.957c0-1.463-0.233-2.485-0.696-3.068
				c-0.466-0.583-1.25-0.875-2.356-0.875c-1.107,0-1.914,0.307-2.417,0.92c-0.504,0.612-0.766,1.62-0.785,3.024H124.812z"/>
		</g>
		<g>
			<path fill="#1EACA7" d="M69.357,9.429H56.714v6.522c0,1.206,0.088,2.005,0.266,2.401c0.178,0.396,0.632,0.593,1.364,0.593
				l2.432-0.089l0.146,2.578c-1.322,0.258-2.331,0.387-3.022,0.387c-1.681,0-2.832-0.387-3.455-1.156
				c-0.623-0.771-0.933-2.224-0.933-4.358V9.429h-1.897V6.672h1.897V2.373h3.202v4.299h12.644V9.429z"/>
			<g>
				<rect x="62.05" y="7.51" fill="#97BF16" width="3.29" height="1.08"/>
				<path fill="#97BF0D" d="M73.314,13.521c2.214-1.028,3.321-2.985,3.321-5.871c0-4.308-2.292-6.463-6.878-6.463H62.05v4.647h3.29
					V4.033h4.418c2.33,0,3.499,1.216,3.499,3.646c0,1.126-0.277,2.03-0.832,2.713c-0.553,0.681-1.423,1.022-2.607,1.022H65.34
					v-1.147h-3.29v11.228h3.29v-7.234h4.774l2.935,7.234h3.618L73.314,13.521z"/>
			</g>
		</g>
		<path fill="#1EACA7" d="M58.344,18.945c-0.731,0-1.186-0.197-1.364-0.593c-0.178-0.396-0.266-1.195-0.266-2.401V9.429h14.384
			l-1.426-2.757H56.714V2.373h-3.202v4.299H51.97h-0.356h-3.735V2.373h-3.202v4.299H42.78v2.757h1.897v6.878
			c0,2.135,0.312,3.587,0.935,4.358c0.622,0.77,1.772,1.156,3.454,1.156c0.691,0,1.7-0.129,3.023-0.387l-0.147-2.578l-2.432,0.089
			c-0.731,0-1.185-0.197-1.363-0.593c-0.179-0.396-0.267-1.195-0.267-2.401V9.429h3.735h0.356h1.542v6.878
			c0,2.135,0.311,3.587,0.933,4.358c0.623,0.77,1.774,1.156,3.455,1.156c0.691,0,1.7-0.129,3.022-0.387l-0.146-2.578L58.344,18.945z
			"/>
		<g>
			<path fill="#1EACA7" d="M26.267,11.029c0.83-0.454,1.438-1.028,1.822-1.719c0.386-0.692,0.579-1.64,0.579-2.846
				c0-1.838-0.515-3.176-1.542-4.017c-1.028-0.84-2.579-1.261-4.655-1.261h-7.708v8.261l2.99,12.047h4.956
				c4.308,0,6.463-1.918,6.463-5.751C29.172,13.353,28.204,11.781,26.267,11.029z M18.055,4.033h4.24
				c2.016,0,3.023,0.938,3.023,2.816c0,1.996-0.968,2.994-2.905,2.994h-4.358V4.033z M24.978,17.967
				c-0.544,0.455-1.359,0.684-2.447,0.684h-4.476v-6.02h4.417c0.949,0,1.739,0.223,2.373,0.667c0.632,0.444,0.948,1.221,0.948,2.327
				S25.521,17.513,24.978,17.967z"/>
		</g>
	</g>
	<g>
		<path fill="#1EACA7" d="M0,21.495L5.01,1.187h6.552l5.041,20.309h-3.321l-1.097-4.358H4.388l-1.097,4.358H0z M7.561,3.944
			l-2.52,10.288h6.492L9.042,3.944H7.561z"/>
	</g>
</g>
</svg>
