<?xml version="1.0" encoding="utf-8"?>
<!-- Generator: Adobe Illustrator 16.0.0, SVG Export Plug-In . SVG Version: 6.00 Build 0)  -->
<!DOCTYPE svg PUBLIC "-//W3C//DTD SVG 1.1//EN" "http://www.w3.org/Graphics/SVG/1.1/DTD/svg11.dtd">
<svg version="1.1" id="Calque_1" xmlns="http://www.w3.org/2000/svg" xmlns:xlink="http://www.w3.org/1999/xlink" x="0px" y="0px"
	 width="191px" height="113px" viewBox="0 0 191 113" enable-background="new 0 0 191 113" xml:space="preserve">
<g>
	<path fill="#C6C7C8" d="M174.097,66.056c0.476-3.959,0.726-7.934,0.747-11.901c0.024-3.97-0.222-7.942-0.955-11.816
		c-0.733-3.858-1.955-7.67-4.16-10.822c-1.097-1.565-2.435-2.944-4.005-3.974c-1.564-1.036-3.348-1.713-5.199-2.068l0.226-1.789
		c1.542,0.057,3.103,0.086,4.638,0.065c1.537-0.018,3.114-0.052,4.522-0.267c0.321-0.048,0.722-0.157,0.784-0.204
		c-0.009,0-0.019,0.01-0.055,0.035c-0.038,0.046-0.076,0.042-0.188,0.256c0.021-0.041,0.063-0.112,0.05-0.112
		c0-0.008-0.006,0.019,0-0.008c0.026-0.09,0.046-0.246,0.059-0.401c0.059-0.644,0.013-1.402-0.059-2.13
		c-0.076-0.728-0.188-1.478-0.362-2.138c-0.04-0.161-0.088-0.321-0.137-0.427c-0.01-0.035-0.053-0.096-0.002-0.016
		c0.018,0.016,0.021,0.034,0.099,0.104c0.023,0.027,0.054,0.05,0.089,0.075c-0.023-0.012,0.285,0.164,0.15,0.087l-0.012-0.005
		l-0.014-0.002c0.008,0.007,0.164,0.073,0.227,0.079h-0.012c-0.225-0.022-0.658-0.013-1.017,0c-3.06,0.126-6.194,0.387-9.304,0.617
		l-4.682,0.34l-2.355,0.159c-0.797,0.039-1.545,0.088-2.451,0.076l-0.277-0.002l-0.26-0.142c-0.712-0.363-1.236-0.748-1.782-1.14
		c-0.532-0.387-1.044-0.779-1.548-1.179c-1.012-0.8-1.988-1.601-2.975-2.405c-1.958-1.608-3.904-3.218-5.88-4.743
		c-1.981-1.514-4.004-3.015-6.084-4.14c-1.948-1.067-4.376-1.521-6.8-1.931c-4.879-0.745-9.921-0.971-14.94-1.098
		c-5.044-0.12-10.056-0.039-15.159,0.021V0.049h0.001v3.062c-5.107-0.056-10.122-0.14-15.161-0.021
		c-5.016,0.127-10.06,0.354-14.945,1.098c-1.209,0.191-2.415,0.42-3.572,0.726c-0.581,0.147-1.144,0.317-1.68,0.509l-0.185,0.071
		l-0.221,0.087l-0.367,0.159c-0.257,0.115-0.516,0.251-0.775,0.385c-2.073,1.126-4.1,2.619-6.078,4.138
		c-1.976,1.525-3.918,3.13-5.884,4.738c-0.976,0.808-1.962,1.611-2.969,2.405c-0.503,0.403-1.021,0.795-1.549,1.185
		c-0.549,0.392-1.068,0.771-1.788,1.141l-0.255,0.137l-0.281,0.005c-0.906,0.011-1.645-0.041-2.452-0.081L34.5,19.645l-4.683-0.351
		c-3.11-0.221-6.244-0.49-9.298-0.615c-0.363-0.01-0.792-0.022-1.019-0.002c-0.003-0.006-0.058,0.022,0.125-0.041
		c0.044-0.016,0.083-0.036,0.126-0.061l0.056-0.034c-0.081,0.066,0.172-0.128,0.141-0.103l-0.03,0.022
		c-0.003,0-0.037,0.031-0.01,0.008c0.025-0.021,0.052-0.044,0.071-0.064c0.111-0.146,0.06-0.085,0.075-0.096l-0.032,0.049
		c-0.043,0.104-0.092,0.263-0.134,0.424c-0.171,0.66-0.289,1.412-0.36,2.138c-0.074,0.728-0.117,1.491-0.063,2.13
		c0.017,0.155,0.038,0.311,0.069,0.401c0.011,0.048,0.02,0.071,0.011,0.059c0.008,0.016-0.104-0.172-0.05-0.085l0.003,0.011
		l0.013,0.014c0,0,0.025,0.044,0,0.001c-0.03-0.049-0.108-0.13-0.125-0.136c-0.034-0.029-0.047-0.035-0.047-0.035
		c0.06,0.041,0.454,0.156,0.781,0.198c1.415,0.219,2.985,0.25,4.516,0.271c1.543,0.016,3.101-0.007,4.639-0.067l0.232,1.799
		c-1.853,0.35-3.636,1.025-5.201,2.061c-1.57,1.03-2.905,2.409-4.004,3.98c-2.197,3.147-3.429,6.957-4.164,10.815
		c-0.727,3.875-0.972,7.847-0.956,11.816c0.025,3.968,0.272,7.942,0.748,11.901c-0.655-3.928-1.154-7.896-1.325-11.884
		c-0.163-3.998-0.071-8.015,0.524-12.007c0.605-3.964,1.7-7.971,3.949-11.469c1.116-1.749,2.57-3.308,4.3-4.523
		c1.72-1.209,3.722-2.035,5.77-2.475l0.223,1.8c-1.577,0.104-3.145,0.17-4.728,0.2c-1.589,0.017-3.152,0.038-4.833-0.167
		c-0.445-0.079-0.838-0.099-1.475-0.406c-0.09-0.047-0.183-0.107-0.297-0.195c-0.046-0.042-0.161-0.155-0.23-0.245l-0.042-0.051
		l-0.008-0.019l-0.062-0.111c-0.101-0.183-0.154-0.342-0.198-0.483c-0.08-0.279-0.111-0.515-0.136-0.747
		c-0.101-0.914-0.055-1.724,0.006-2.553c0.072-0.824,0.175-1.628,0.379-2.482c0.053-0.221,0.108-0.432,0.204-0.699l0.093-0.211
		c0.062-0.1,0.05-0.124,0.221-0.354c0.03-0.042,0.071-0.086,0.113-0.129l0.038-0.039l0.026-0.03
		c-0.026,0.021,0.225-0.172,0.158-0.112l0.071-0.048c0.05-0.023,0.1-0.048,0.155-0.069c0.28-0.091,0.325-0.076,0.415-0.094
		c0.555-0.051,0.905-0.034,1.328-0.041c3.183,0.073,6.286,0.272,9.414,0.445l4.669,0.25l2.327,0.105
		c0.764,0.03,1.573,0.068,2.229,0.047l-0.537,0.134c0.407-0.212,0.922-0.572,1.399-0.924c0.481-0.367,0.97-0.746,1.449-1.138
		c0.974-0.785,1.94-1.593,2.907-2.411c1.944-1.629,3.879-3.273,5.892-4.86c2.024-1.585,4.055-3.149,6.422-4.476
		c0.302-0.159,0.606-0.318,0.924-0.465c0.149-0.072,0.351-0.157,0.5-0.227l0.222-0.092l0.261-0.103
		c0.645-0.238,1.295-0.439,1.94-0.617c1.296-0.342,2.577-0.59,3.864-0.799c5.132-0.802,10.24-1.051,15.338-1.196
		c5.08-0.141,10.203-0.086,15.227-0.041v3.062h-0.001V0.049c5.019-0.038,10.14-0.1,15.229,0.041
		c5.098,0.145,10.198,0.394,15.329,1.196c1.287,0.208,2.579,0.457,3.867,0.807c0.637,0.17,1.311,0.376,1.944,0.618
		c0.66,0.24,1.309,0.559,1.9,0.883c2.365,1.323,4.406,2.886,6.421,4.47c2.015,1.593,3.96,3.231,5.896,4.87
		c0.964,0.808,1.928,1.618,2.902,2.408c0.487,0.386,0.97,0.769,1.449,1.133c0.486,0.35,0.994,0.71,1.405,0.932l-0.542-0.141
		c0.655,0.02,1.475-0.021,2.232-0.046l2.328-0.11l4.669-0.25c3.13-0.162,6.224-0.365,9.412-0.438c0.421,0,0.772-0.015,1.326,0.037
		l0.136,0.019c0.102,0.015,0.312,0.087,0.369,0.114l0.012,0.007l0.012,0.008c-0.125-0.079,0.177,0.1,0.163,0.095
		c0.054,0.041,0.101,0.077,0.15,0.124c0.105,0.101,0.145,0.162,0.182,0.211c0.163,0.238,0.2,0.359,0.261,0.504
		c0.101,0.267,0.151,0.479,0.208,0.699c0.2,0.854,0.306,1.659,0.378,2.482c0.062,0.829,0.106,1.64,0.01,2.547
		c-0.027,0.232-0.061,0.474-0.144,0.753c-0.007,0.07-0.055,0.185-0.093,0.273c-0.032,0.094-0.045,0.108-0.07,0.157
		c-0.154,0.297-0.258,0.369-0.377,0.473c-0.106,0.093-0.196,0.148-0.286,0.2c-0.644,0.302-1.035,0.32-1.479,0.4
		c-1.685,0.202-3.246,0.18-4.834,0.167c-1.582-0.036-3.151-0.102-4.734-0.197l0.234-1.79c2.049,0.435,4.044,1.258,5.766,2.478
		c1.726,1.205,3.18,2.774,4.301,4.517c2.243,3.494,3.334,7.5,3.944,11.468c0.593,3.988,0.687,8.005,0.522,12.003
		C175.25,58.159,174.756,62.128,174.097,66.056z"/>
	<g>
		<g>
			<path fill-rule="evenodd" clip-rule="evenodd" fill="#1EACA7" d="M106.669,44.9c0,6.655,0,6.515,0,12.029h4.35
				c0-5.515,0-5.374,0-12.029H106.669L106.669,44.9z M76.573,48.734h3.834V44.9h4.355v3.833h3.836v4.359h-3.836v3.837h-4.355v-3.837
				h-3.834V48.734L76.573,48.734z M90.05,40.494H74.101c-0.566,0-1.026,0.457-1.026,1.019v18.79c0,0.567,0.46,1.027,1.026,1.027
				h22.492L90.05,40.494L90.05,40.494z M71.231,36.598c-1.125,0-2.049,0.921-2.049,2.048v24.531c0,1.127,0.92,2.051,2.049,2.051
				h49.248c1.13,0,2.05-0.929,2.05-2.051V38.646c0-1.124-0.92-2.048-2.05-2.048H71.231z"/>
			<rect x="66.139" y="45.072" fill-rule="evenodd" clip-rule="evenodd" fill="#1EACA7" width="4.74" height="11.683"/>
		</g>
		<path fill-rule="evenodd" clip-rule="evenodd" fill="#1EACA7" d="M95.345,20.827c0.004-1.007,0.513-1.533,1.592-1.335
			c-0.008,2.84,4.383,3.404,7.267,1.283c-0.976-1.208-4.402-5.286-6.894-2.669c1.846,0.072,3.554,2.734,5.653,2.636
			c-2.712,0.93-5.209-3.669-8.13-1.834c-0.745,0.466-1.104,1.158-1.08,1.978l0.039,10.56h1.553V20.827z"/>
		<path fill-rule="evenodd" clip-rule="evenodd" fill="#1EACA7" d="M92.66,25.39c-0.004-2.089-1.063-3.188-3.305-2.777
			c0.016,5.897-9.104,7.072-15.084,2.665c2.018-2.512,9.136-10.975,14.303-5.538c-3.82,0.156-7.365,5.679-11.737,5.47
			c5.643,1.932,10.825-7.614,16.897-3.806c1.54,0.966,2.28,2.394,2.235,4.114l-0.082,21.924H92.66V25.39z"/>
		<path fill-rule="evenodd" clip-rule="evenodd" fill="#1EACA7" d="M101.506,28.837c0.011-2.091,1.062-3.185,3.307-2.772
			c-0.016,5.894,9.089,7.068,15.07,2.66c-2.015-2.51-9.131-10.979-14.29-5.536c3.816,0.152,7.354,5.678,11.723,5.471
			c-5.634,1.931-10.813-7.614-16.88-3.808c-1.539,0.967-2.283,2.393-2.237,4.115l0.08,17.956h3.228V28.837z"/>
	</g>
	<g>
		<g>
			<g>
				<path fill="#1EACA7" d="M62.188,97.186v10.074c0.029,0.649,0.198,1.126,0.507,1.436c0.31,0.31,0.788,0.508,1.437,0.596
					l-0.133,3.668c-2.533,0-4.491-0.544-5.875-1.635c-2.357,1.091-4.729,1.635-7.114,1.635c-4.388,0-6.583-2.341-6.583-7.024
					c0-2.239,0.597-3.86,1.791-4.861c1.192-0.999,3.025-1.605,5.5-1.811l5.7-0.485v-1.592c0-1.178-0.258-2.005-0.772-2.474
					c-0.515-0.473-1.274-0.708-2.275-0.708c-1.886,0-4.243,0.119-7.069,0.353l-1.415,0.09l-0.176-3.402
					c3.21-0.766,6.164-1.149,8.858-1.149c2.696,0,4.64,0.583,5.833,1.746C61.59,92.803,62.188,94.651,62.188,97.186z
					 M52.291,102.664c-2.033,0.177-3.049,1.28-3.049,3.312c0,2.035,0.899,3.051,2.695,3.051c1.473,0,3.034-0.235,4.684-0.708
					l0.795-0.266v-5.875L52.291,102.664z"/>
			</g>
			<g>
				<path fill="#97BF0D" d="M131.952,108.496l1.24-0.13l0.088,3.575c-3.358,0.679-6.336,1.018-8.926,1.018
					c-3.271,0-5.619-0.9-7.047-2.694c-1.43-1.798-2.144-4.668-2.144-8.616c0-7.836,3.194-11.754,9.59-11.754
					c6.183,0,9.277,3.374,9.277,10.119l-0.309,3.447h-13.697c0.028,1.826,0.424,3.165,1.192,4.021
					c0.764,0.854,2.193,1.281,4.286,1.281C127.595,108.763,129.745,108.672,131.952,108.496z M129.305,99.749
					c0-2.182-0.348-3.704-1.039-4.574c-0.691-0.867-1.863-1.305-3.512-1.305c-1.653,0-2.852,0.459-3.603,1.371
					c-0.753,0.912-1.142,2.416-1.171,4.508H129.305z"/>
			</g>
			<g>
				<polygon fill="#97BF0D" points="152.59,108.1 141.499,108.1 141.499,82.206 136.593,82.206 136.593,112.473 152.59,112.473 
					153.56,112.473 157.402,112.473 157.402,90.382 152.59,90.382 				"/>
				<rect x="152.59" y="81.544" fill="#97BF0D" width="4.812" height="5.082"/>
			</g>
			<g>
				<path fill="#97BF0D" d="M166.374,94.49v17.982h-4.772V94.49h-2.562v-4.108h2.562v-1.415c0-3.151,0.454-5.316,1.369-6.495
					c0.912-1.177,2.535-1.769,4.86-1.769l4.771,0.442l-0.043,3.931c-1.443-0.059-2.646-0.088-3.602-0.088s-1.628,0.288-2.009,0.862
					c-0.387,0.575-0.575,1.628-0.575,3.161v1.37h5.832v4.108H166.374z"/>
			</g>
			<g>
				<path fill="#97BF0D" d="M188.687,108.496l1.236-0.13l0.088,3.575c-3.356,0.679-6.331,1.018-8.923,1.018
					c-3.272,0-5.619-0.9-7.05-2.694c-1.428-1.798-2.14-4.668-2.14-8.616c0-7.836,3.195-11.754,9.586-11.754
					c6.187,0,9.279,3.374,9.279,10.119l-0.31,3.447h-13.697c0.028,1.826,0.426,3.165,1.196,4.021c0.765,0.854,2.19,1.281,4.28,1.281
					C184.325,108.763,186.479,108.672,188.687,108.496z M186.036,99.749c0-2.182-0.35-3.704-1.038-4.574
					c-0.693-0.867-1.864-1.305-3.514-1.305c-1.651,0-2.85,0.459-3.601,1.371c-0.75,0.912-1.143,2.416-1.17,4.508H186.036z"/>
			</g>
			<g>
				<path fill="#1EACA7" d="M103.388,94.49H84.544v9.721c0,1.798,0.131,2.988,0.397,3.577c0.265,0.591,0.942,0.884,2.032,0.884
					l3.623-0.133l0.221,3.846c-1.972,0.383-3.474,0.574-4.506,0.574c-2.504,0-4.22-0.574-5.147-1.721
					c-0.928-1.151-1.392-3.316-1.392-6.497V94.49h-2.829v-4.108h2.829v-6.408h4.772v6.408h18.844V94.49z"/>
				<g>
					<rect x="92.497" y="91.632" fill="#97BF16" width="4.903" height="1.61"/>
					<path fill="#97BF0D" d="M109.287,100.588c3.3-1.531,4.948-4.448,4.948-8.749c0-6.423-3.417-9.633-10.25-9.633H92.497v6.925
						H97.4v-2.684h6.585c3.473,0,5.216,1.813,5.216,5.437c0,1.679-0.414,3.024-1.24,4.043c-0.825,1.016-2.121,1.523-3.89,1.523H97.4
						v-1.712h-4.903v16.734H97.4v-10.78h7.117l4.374,10.78h5.389L109.287,100.588z"/>
				</g>
			</g>
			<path fill="#1EACA7" d="M86.973,108.672c-1.089,0-1.767-0.293-2.032-0.884c-0.266-0.589-0.397-1.779-0.397-3.577V94.49h21.437
				l-2.122-4.108H84.544v-6.408h-4.772v6.408h-2.298h-0.531h-5.565v-6.408h-4.773v6.408h-2.829v4.108h2.829v10.251
				c0,3.181,0.464,5.346,1.393,6.497c0.928,1.146,2.642,1.721,5.146,1.721c1.032,0,2.534-0.191,4.506-0.574l-0.22-3.846
				l-3.624,0.133c-1.09,0-1.766-0.293-2.031-0.884c-0.266-0.589-0.397-1.779-0.397-3.577V94.49h5.565h0.531h2.298v10.251
				c0,3.181,0.464,5.346,1.392,6.497c0.927,1.146,2.643,1.721,5.147,1.721c1.032,0,2.534-0.191,4.506-0.574l-0.221-3.846
				L86.973,108.672z"/>
			<g>
				<path fill="#1EACA7" d="M39.167,96.877c1.238-0.68,2.144-1.534,2.717-2.562c0.575-1.031,0.862-2.446,0.862-4.241
					c0-2.742-0.767-4.736-2.298-5.989c-1.533-1.252-3.844-1.878-6.938-1.878H22.023v12.312l4.456,17.954h7.386
					c6.421,0,9.631-2.856,9.631-8.571C43.497,100.337,42.054,97.995,39.167,96.877z M26.927,86.447h6.319
					c3.005,0,4.507,1.399,4.507,4.197c0,2.976-1.443,4.464-4.331,4.464h-6.496V86.447z M37.246,107.216
					c-0.812,0.677-2.026,1.018-3.646,1.018h-6.672v-8.971h6.584c1.415,0,2.592,0.33,3.535,0.994
					c0.943,0.662,1.413,1.817,1.413,3.466C38.459,105.373,38.055,106.54,37.246,107.216z"/>
			</g>
		</g>
		<g>
			<path fill="#1EACA7" d="M0.021,112.473l7.466-30.267h9.766l7.512,30.267h-4.95l-1.634-6.496H6.56l-1.636,6.496H0.021z
				 M11.287,86.315l-3.756,15.333h9.677l-3.711-15.333H11.287z"/>
		</g>
	</g>
</g>
</svg>
