<?xml version="1.0" encoding="utf-8"?>
<!-- Generator: Adobe Illustrator 16.0.0, SVG Export Plug-In . SVG Version: 6.00 Build 0)  -->
<!DOCTYPE svg PUBLIC "-//W3C//DTD SVG 1.1//EN" "http://www.w3.org/Graphics/SVG/1.1/DTD/svg11.dtd">
<svg version="1.1" id="Calque_1" xmlns="http://www.w3.org/2000/svg" xmlns:xlink="http://www.w3.org/1999/xlink" x="0px" y="0px"
	 width="183px" height="113px" viewBox="0 0 183 113" enable-background="new 0 0 183 113" xml:space="preserve">
<path opacity="0.3" fill-rule="evenodd" clip-rule="evenodd" fill="#FFFFFF" d="M74.11,19.8h-8.22v7.27h-7.24v8.27h7.24v7.28h8.22
	v-7.28h7.23v-8.27h-7.23V19.8z M97,9.66c0-2.13-1.74-3.89-3.86-3.89L81.01,5.78L81.02,0H58.98v5.78L46.87,5.77
	C44.74,5.77,43,7.52,43,9.66v93.45c0,2.14,1.75,3.89,3.87,3.89h46.27c2.12,0,3.86-1.75,3.86-3.89V9.66z M89.65,45.37l-39.3,12.42
	V15.11c0-1.07,0.87-1.95,1.94-1.95h35.44c1.06,0,1.92,0.88,1.92,1.95V45.37z M81.34,76.91v8.25H58.65v-8.25H81.34z"/>
<path opacity="0.3" fill-rule="evenodd" clip-rule="evenodd" fill="#FFFFFF" d="M14.84,39.77v4.69h-4.69v5.33h4.69v4.69h5.33v-4.69
	h4.68v-5.33h-4.68v-4.69H14.84z M0,33.23v60.26C0,94.87,1.13,96,2.5,96h29.99c1.38,0,2.51-1.13,2.51-2.51V33.23
	c0-1.38-1.13-2.51-2.51-2.51h-7.85V27H10.36v3.72H2.5C1.13,30.72,0,31.85,0,33.23z M4.76,56.26V36.74c0-0.69,0.56-1.25,1.25-1.25
	h22.97c0.69,0,1.25,0.56,1.25,1.25v27.52L4.76,56.26z M10.15,76.59h14.7v5.33h-14.7V76.59z"/>
<path fill-rule="evenodd" clip-rule="evenodd" fill="#FFFFFF" d="M183,70.99v-1.36c-0.06-0.19-0.15-0.37-0.17-0.55
	c-0.22-1.97-0.88-3.77-1.85-5.48l-7.81-13.73c-0.17-0.31-0.37-0.6-0.59-0.95l-18.77,11.05c0.11,0.26,0.18,0.47,0.29,0.66
	l11.08,19.69c0.29,0.5,0.62,0.63,1.15,0.63c2.52-0.03,5.04-0.06,7.57,0c1.55,0.05,2.96-0.35,4.08-1.35
	c1.21-1.09,2.47-2.24,3.26-3.63C182.1,74.47,182.44,72.67,183,70.99z M97.05,57.42c-0.23,0.41-0.4,0.75-0.59,1.08
	c-1.95,3.42-3.89,6.86-5.87,10.27c-0.84,1.45-0.75,2.81,0.06,4.22l11.95,20.86c0.15,0.27,0.33,0.52,0.49,0.78
	c-0.5-2.23,0.46-4.01,1.49-5.8l10.96-19.3c0.18-0.3,0.37-0.6,0.59-0.96l6.55,3.82c-0.17-0.36-0.21-0.45-0.25-0.53l-10.21-17.84
	c-0.3-0.52-0.67-0.58-1.17-0.58H91.51H90.8l-0.03,0.2L97.05,57.42z M129.87,21.07c2.06,0.8,3.11,2.48,4.11,4.27
	c3.61,6.46,7.26,12.9,10.89,19.34c0.17,0.3,0.32,0.61,0.5,0.97l-6.44,3.85c7.17,0,14.03,0.01,20.9-0.03c0.33,0,0.78-0.38,0.96-0.7
	c3.3-5.78,6.57-11.59,9.83-17.39c0.11-0.19,0.18-0.4,0.34-0.76l-6.49,3.8c-0.21-0.35-0.38-0.62-0.54-0.9
	c-1.7-3.01-3.56-5.94-5.06-9.05c-1.27-2.64-3.03-3.54-5.91-3.47C145.27,21.2,137.57,21.07,129.87,21.07z M149.8,105.3h1.19
	c3.96,0,7.92-0.04,11.88,0.02c1.56,0.02,2.6-0.68,3.34-2l11.84-21.03c0.16-0.29,0.31-0.58,0.47-0.86c-1.62,1.28-3.41,1.59-5.36,1.58
	c-7.35-0.04-14.69-0.01-22.04-0.01h-1.33v-7.59c-0.17,0.21-0.24,0.28-0.29,0.36l-10.1,17.9c-0.27,0.48-0.21,0.8,0.04,1.23l9.8,17.29
	c0.12,0.21,0.27,0.39,0.56,0.81V105.3z M134,82.99c-0.22-0.03-0.35-0.06-0.47-0.06c-7.57-0.01-15.13-0.02-22.7,0.02
	c-0.31,0-0.75,0.3-0.92,0.6c-1.4,2.36-2.77,4.74-4.08,7.15c-0.36,0.66-0.59,1.46-0.65,2.21c-0.49,6.64,4.61,12.19,11.22,12.22
	c5.55,0.03,11.11,0.01,16.66,0c0.31,0,0.61-0.04,0.94-0.06V82.99z M124.22,54.21c0.12-0.15,0.2-0.21,0.25-0.29
	c3.8-6.69,7.6-13.38,11.37-20.09c0.16-0.29,0.11-0.87-0.07-1.19c-1.27-2.32-2.54-4.66-3.94-6.9c-0.57-0.89-1.37-1.75-2.26-2.29
	c-5.25-3.23-12.16-1.38-15.25,4.01c-2.85,4.96-5.66,9.94-8.49,14.92c-0.13,0.24-0.23,0.5-0.37,0.78L124.22,54.21z"/>
</svg>
