<?xml version="1.0" encoding="utf-8"?>
<!-- Generator: Adobe Illustrator 16.0.0, SVG Export Plug-In . SVG Version: 6.00 Build 0)  -->
<!DOCTYPE svg PUBLIC "-//W3C//DTD SVG 1.1//EN" "http://www.w3.org/Graphics/SVG/1.1/DTD/svg11.dtd">
<svg version="1.1" id="Calque_1" xmlns="http://www.w3.org/2000/svg" xmlns:xlink="http://www.w3.org/1999/xlink" x="0px" y="0px"
	 width="186px" height="97px" viewBox="0 0 186 97" enable-background="new 0 0 186 97" xml:space="preserve">
<path fill-rule="evenodd" clip-rule="evenodd" fill="#FFFFFF" d="M186,52.99v-1.36c-0.06-0.19-0.15-0.37-0.17-0.55
	c-0.22-1.97-0.88-3.77-1.85-5.48l-7.81-13.73c-0.17-0.31-0.37-0.6-0.59-0.95l-18.77,11.05c0.11,0.26,0.18,0.47,0.29,0.66
	l11.08,19.69c0.29,0.5,0.62,0.63,1.15,0.63c2.52-0.03,5.04-0.06,7.57,0c1.55,0.05,2.96-0.35,4.08-1.35
	c1.21-1.09,2.47-2.24,3.26-3.63C185.1,56.47,185.44,54.67,186,52.99z M100.05,39.42c-0.23,0.41-0.4,0.75-0.59,1.08
	c-1.95,3.42-3.89,6.86-5.87,10.27c-0.84,1.45-0.75,2.81,0.06,4.22l11.95,20.86c0.15,0.27,0.33,0.52,0.49,0.78
	c-0.5-2.23,0.46-4.01,1.49-5.8l10.96-19.3c0.18-0.3,0.37-0.6,0.59-0.96l6.55,3.82c-0.17-0.36-0.21-0.45-0.25-0.53l-10.21-17.84
	c-0.3-0.52-0.67-0.58-1.17-0.58H94.51H93.8l-0.03,0.2L100.05,39.42z M132.87,3.07c2.06,0.8,3.11,2.48,4.11,4.27
	c3.61,6.46,7.26,12.9,10.89,19.34c0.17,0.3,0.32,0.61,0.5,0.97l-6.44,3.85c7.17,0,14.03,0.01,20.9-0.03c0.33,0,0.78-0.38,0.96-0.7
	c3.3-5.78,6.57-11.59,9.83-17.39c0.11-0.19,0.18-0.4,0.34-0.76l-6.49,3.8c-0.21-0.35-0.38-0.62-0.54-0.9
	c-1.7-3.01-3.56-5.94-5.06-9.05c-1.27-2.64-3.03-3.54-5.91-3.47C148.27,3.2,140.57,3.07,132.87,3.07z M152.8,87.3h1.19
	c3.96,0,7.92-0.04,11.88,0.02c1.56,0.02,2.6-0.68,3.34-2l11.84-21.03c0.16-0.29,0.31-0.58,0.47-0.86c-1.62,1.28-3.41,1.59-5.36,1.58
	c-7.35-0.04-14.69-0.01-22.04-0.01h-1.33v-7.59c-0.17,0.21-0.24,0.28-0.29,0.36l-10.1,17.9c-0.27,0.48-0.21,0.8,0.04,1.23l9.8,17.29
	c0.12,0.21,0.27,0.39,0.56,0.81V87.3z M137,64.99c-0.22-0.03-0.35-0.06-0.47-0.06c-7.57-0.01-15.13-0.02-22.7,0.02
	c-0.31,0-0.75,0.3-0.92,0.6c-1.4,2.36-2.77,4.74-4.08,7.15c-0.36,0.66-0.59,1.46-0.65,2.21c-0.49,6.64,4.61,12.19,11.22,12.22
	c5.55,0.03,11.11,0.01,16.66,0c0.31,0,0.61-0.04,0.94-0.06V64.99z M127.22,36.21c0.12-0.15,0.2-0.21,0.25-0.29
	c3.8-6.69,7.6-13.38,11.37-20.09c0.16-0.29,0.11-0.87-0.07-1.19c-1.27-2.32-2.54-4.66-3.94-6.9c-0.57-0.89-1.37-1.75-2.26-2.29
	c-5.25-3.23-12.16-1.38-15.25,4.01c-2.85,4.96-5.66,9.94-8.49,14.92c-0.13,0.24-0.23,0.5-0.37,0.78L127.22,36.21z"/>
<path opacity="0.3" fill-rule="evenodd" clip-rule="evenodd" fill="#FFFFFF" d="M68.49,11.77V5.26V4.8c1.5,0,2.96-0.04,4.42,0.02
	c0.62,0.03,1.13,0.41,1.54,0.92c1.59,2,3.2,3.97,4.86,6.03H68.49z M51.8,11.78c0.06-0.11,0.08-0.18,0.13-0.24
	c1.49-2.02,2.99-4.04,4.5-6.04c0.39-0.51,0.9-0.8,1.58-0.79c1.91,0.02,3.81,0,5.76,0v7.07H51.8z M99,20.7
	c-0.31-1.39-0.77-2.72-1.55-3.91c-1.77-2.68-4.28-4.17-7.37-4.7c-1.09-0.19-2.21-0.26-3.31-0.25c-1.09,0-1.91-0.41-2.58-1.23
	c-1.52-1.88-3.06-3.73-4.59-5.6c-0.79-0.97-1.61-1.92-2.36-2.93c-1.06-1.44-2.51-2.06-4.22-2.06C67.66-0.01,62.3,0,56.95,0.01
	c-1.34,0.01-2.37,0.47-3.22,1.66c-2.19,3.06-4.53,6.02-6.8,9.03c-0.57,0.76-1.28,1.14-2.24,1.12c-1.17-0.03-2.34,0.06-3.51-0.01
	c-1.48-0.1-2.59,0.36-3.18,1.8v12.97c0.27,0.4,0.48,0.88,0.84,1.19c0.35,0.29,0.84,0.54,1.27,0.56c1.63,0.06,3.25,0.03,4.87,0.03
	c0.87-5,5.1-7.24,8.3-7.23c3.31,0.02,7.42,2.4,8.23,7.22h13.93c1.2-4.68,4.05-7.31,8.99-7.16c1.93,0.06,3.6,0.91,5.01,2.24
	c1.4,1.34,2.22,3,2.54,4.93c1.66,0,3.28,0.04,4.91-0.02c0.84-0.03,1.47-0.53,1.86-1.31c0.08-0.15,0.17-0.3,0.25-0.45V20.7z
	 M53.25,35c2.98,0,5.44-2.48,5.41-5.46c-0.02-2.98-2.42-5.4-5.38-5.45c-2.93-0.04-5.42,2.45-5.44,5.45
	C47.81,32.52,50.27,35,53.25,35z M83.77,35c2.98-0.02,5.45-2.52,5.4-5.48c-0.06-3-2.46-5.41-5.41-5.43
	c-2.94-0.02-5.43,2.49-5.42,5.47C78.34,32.56,80.79,35.02,83.77,35z"/>
<path opacity="0.3" fill-rule="evenodd" clip-rule="evenodd" fill="#FFFFFF" d="M49.52,59.17H31.95c2.7-3.35,5.32-6.57,7.9-9.82
	c0.66-0.83,1.48-1.46,2.49-1.5c2.37-0.09,4.74-0.03,7.18-0.03v0.75V59.17z M76.6,59.18H57.17v-11.5c3.17,0,6.26,0.02,9.35-0.02
	c1.11-0.01,1.94,0.46,2.57,1.3c2.45,3.26,4.88,6.55,7.31,9.83C76.47,58.89,76.51,59,76.6,59.18z M0,73.71v9.58
	c0.14,0.24,0.28,0.48,0.4,0.73c0.63,1.27,1.65,2.08,3.03,2.13c2.63,0.09,5.27,0.03,7.96,0.03c0.53-3.14,1.85-5.84,4.13-8.02
	c2.28-2.18,5-3.55,8.12-3.65c8.03-0.25,12.65,4.03,14.59,11.66h22.61c1.31-7.85,7.98-11.73,13.36-11.75
	c5.19-0.03,12.06,3.62,13.47,11.76c2.63,0,5.27,0.06,7.9-0.04c0.71-0.03,1.51-0.44,2.07-0.92c0.58-0.49,0.92-1.27,1.36-1.93V62.17
	c-0.96-2.35-2.76-3.1-5.17-2.94c-1.89,0.12-3.8-0.03-5.69,0.02c-1.56,0.03-2.71-0.59-3.64-1.83c-3.68-4.9-7.47-9.71-11.03-14.7
	c-1.38-1.93-3.06-2.69-5.22-2.7c-8.7-0.02-17.39-0.03-26.08,0.01c-2.78,0.01-5.13,1.01-6.85,3.35c-1.21,1.65-2.55,3.2-3.84,4.78
	c-2.48,3.04-4.98,6.06-7.45,9.11c-1.09,1.35-2.41,2.01-4.17,2.01c-1.8-0.01-3.62,0.1-5.38,0.41c-5.02,0.86-9.1,3.29-11.96,7.65
	C1.24,69.29,0.5,71.45,0,73.71z M74.25,97c4.84,0,8.83-4.04,8.79-8.89c-0.04-4.88-4.09-8.95-8.84-8.88
	c-4.8,0.08-8.69,4.03-8.74,8.88C65.42,92.96,69.41,97,74.25,97z M24.72,97c4.83,0.02,8.81-3.98,8.82-8.86
	c0-4.85-4.04-8.93-8.81-8.91c-4.78,0.03-8.68,3.96-8.77,8.85C15.87,92.9,19.88,96.98,24.72,97z"/>
</svg>
