<?xml version="1.0" encoding="utf-8"?>
<!-- Generator: Adobe Illustrator 16.0.0, SVG Export Plug-In . SVG Version: 6.00 Build 0)  -->
<!DOCTYPE svg PUBLIC "-//W3C//DTD SVG 1.1//EN" "http://www.w3.org/Graphics/SVG/1.1/DTD/svg11.dtd">
<svg version="1.1" id="Calque_1" xmlns="http://www.w3.org/2000/svg" xmlns:xlink="http://www.w3.org/1999/xlink" x="0px" y="0px"
	 width="113.998px" height="99px" viewBox="0 0 113.998 99" enable-background="new 0 0 113.998 99" xml:space="preserve">
<path opacity="0.3" fill-rule="evenodd" clip-rule="evenodd" fill="#FFFFFF" d="M28.23,18.32h-7.46v6.73H14.2v7.65h6.57v6.73h7.46
	V32.7h6.56v-7.65h-6.56V18.32z M49,8.94c0-1.98-1.58-3.6-3.51-3.6h-11L34.5,0h-20v5.34H3.51C1.58,5.34,0,6.96,0,8.94V95.4
	C0,97.38,1.59,99,3.51,99h41.98c1.93,0,3.51-1.62,3.51-3.6V8.94z M42.33,41.98L6.67,53.47V13.98c0-0.99,0.79-1.8,1.76-1.8h32.16
	c0.96,0,1.74,0.81,1.74,1.8V41.98z M34.79,71.16v7.63H14.2v-7.63H34.79z"/>
<path fill="#FFFFFF" d="M107.69,31.26c-7.49-7.01-19.62-7.01-27.11,0l-5.08,4.76l-5.08-4.76c-7.49-7.01-19.62-7.01-27.1,0
	c-8.42,7.89-8.42,20.69,0,28.58L75.5,90l32.19-30.16C116.1,51.95,116.1,39.15,107.69,31.26z"/>
</svg>
